<svg width="18" height="18" viewBox="0 0 18 18" fill="none" xmlns="http://www.w3.org/2000/svg">
<path d="M7.24725 12.75H10.752M9 2.25V3M13.773 4.227L13.2427 4.75725M15.75 9H15M3 9H2.25M4.75725 4.75725L4.227 4.227M6.348 11.652C5.82365 11.1275 5.4666 10.4593 5.32198 9.73192C5.17737 9.00452 5.25169 8.25057 5.53555 7.56541C5.8194 6.88024 6.30005 6.29463 6.91671 5.88262C7.53338 5.47061 8.25836 5.2507 9 5.2507C9.74164 5.2507 10.4666 5.47061 11.0833 5.88262C11.6999 6.29463 12.1806 6.88024 12.4645 7.56541C12.7483 8.25057 12.8226 9.00452 12.678 9.73192C12.5334 10.4593 12.1763 11.1275 11.652 11.652L11.241 12.0623C11.006 12.2973 10.8197 12.5763 10.6925 12.8833C10.5654 13.1903 10.5 13.5194 10.5 13.8517V14.25C10.5 14.6478 10.342 15.0294 10.0607 15.3107C9.77936 15.592 9.39782 15.75 9 15.75C8.60218 15.75 8.22064 15.592 7.93934 15.3107C7.65804 15.0294 7.5 14.6478 7.5 14.25V13.8517C7.5 13.1805 7.233 12.5363 6.759 12.0623L6.348 11.652Z" stroke="white" stroke-width="2" stroke-linecap="round" stroke-linejoin="round"/>
</svg>
