<svg width="16" height="16" viewBox="0 0 16 16" fill="none" xmlns="http://www.w3.org/2000/svg">
<path d="M12 6.39999C12.4873 6.40001 12.9631 6.25167 13.3641 5.97471C13.7651 5.69775 14.0722 5.30529 14.2447 4.84952C14.4172 4.39375 14.4469 3.89626 14.3298 3.42322C14.2126 2.95018 13.9543 2.524 13.5891 2.20135C13.2239 1.87871 12.7691 1.67488 12.2852 1.61699C11.8013 1.5591 11.3113 1.64987 10.8803 1.87725C10.4493 2.10463 10.0977 2.45783 9.87226 2.88989C9.64685 3.32195 9.55831 3.81239 9.61842 4.29599L5.66642 6.27199C5.3274 5.94508 4.89969 5.72513 4.43657 5.63955C3.97345 5.55397 3.49538 5.60654 3.06192 5.79071C2.62847 5.97489 2.25877 6.28252 1.9989 6.6753C1.73903 7.06807 1.60046 7.52863 1.60046 7.99959C1.60046 8.47056 1.73903 8.93111 1.9989 9.32389C2.25877 9.71666 2.62847 10.0243 3.06192 10.2085C3.49538 10.3926 3.97345 10.4452 4.43657 10.3596C4.89969 10.2741 5.3274 10.0541 5.66642 9.72719L9.61842 11.7032C9.54841 12.265 9.67926 12.8334 9.98784 13.3081C10.2964 13.7827 10.7628 14.133 11.3047 14.297C11.8466 14.461 12.429 14.4282 12.949 14.2044C13.469 13.9805 13.8931 13.5801 14.1464 13.0737C14.3997 12.5674 14.4658 11.9879 14.3332 11.4375C14.2005 10.8871 13.8775 10.4014 13.4214 10.0661C12.9652 9.73082 12.4052 9.56759 11.8403 9.60527C11.2754 9.64295 10.742 9.8791 10.3344 10.272L6.38242 8.29599C6.40663 8.0994 6.40663 7.90058 6.38242 7.70399L10.3344 5.72799C10.7648 6.14399 11.352 6.39999 12 6.39999Z" fill="white"/>
</svg>
