<svg width="29" height="29" viewBox="0 0 29 29" fill="none" xmlns="http://www.w3.org/2000/svg">
<path d="M17.7067 14.7075L7.70787 24.707C7.61497 24.7999 7.50468 24.8736 7.3833 24.9238C7.26192 24.9741 7.13182 25 7.00044 25C6.86906 25 6.73897 24.9741 6.61759 24.9238C6.49621 24.8736 6.38592 24.7999 6.29302 24.707C6.20012 24.6141 6.12643 24.5038 6.07615 24.3824C6.02588 24.261 6 24.1309 6 23.9995C6 23.8681 6.02588 23.738 6.07615 23.6166C6.12643 23.4952 6.20012 23.3849 6.29302 23.292L15.5857 14L6.29302 4.70797C6.1054 4.52034 6 4.26586 6 4.00051C6 3.73515 6.1054 3.48067 6.29302 3.29304C6.48064 3.10541 6.73511 3 7.00044 3C7.26578 3 7.52025 3.10541 7.70787 3.29304L17.7067 13.2925C17.7997 13.3854 17.8735 13.4957 17.9238 13.6171C17.9741 13.7385 18 13.8686 18 14C18 14.1314 17.9741 14.2615 17.9238 14.3829C17.8735 14.5043 17.7997 14.6146 17.7067 14.7075Z" fill="white" fill-opacity="0.6"/>
</svg>
