<svg width="16" height="16" viewBox="0 0 16 16" fill="none" xmlns="http://www.w3.org/2000/svg">
<path d="M8.70698 0.293C8.51945 0.105529 8.26514 0.000213623 7.99998 0.000213623C7.73482 0.000213623 7.48051 0.105529 7.29298 0.293L0.29298 7.293C0.110822 7.4816 0.0100274 7.7342 0.0123059 7.9964C0.0145843 8.2586 0.119753 8.50941 0.305161 8.69482C0.490569 8.88023 0.741382 8.9854 1.00358 8.98767C1.26578 8.98995 1.51838 8.88916 1.70698 8.707L1.99998 8.414V15C1.99998 15.2652 2.10534 15.5196 2.29287 15.7071C2.48041 15.8946 2.73476 16 2.99998 16H4.99998C5.2652 16 5.51955 15.8946 5.70709 15.7071C5.89462 15.5196 5.99998 15.2652 5.99998 15V13C5.99998 12.7348 6.10534 12.4804 6.29287 12.2929C6.48041 12.1054 6.73476 12 6.99998 12H8.99998C9.2652 12 9.51955 12.1054 9.70709 12.2929C9.89462 12.4804 9.99998 12.7348 9.99998 13V15C9.99998 15.2652 10.1053 15.5196 10.2929 15.7071C10.4804 15.8946 10.7348 16 11 16H13C13.2652 16 13.5196 15.8946 13.7071 15.7071C13.8946 15.5196 14 15.2652 14 15V8.414L14.293 8.707C14.4816 8.88916 14.7342 8.98995 14.9964 8.98767C15.2586 8.9854 15.5094 8.88023 15.6948 8.69482C15.8802 8.50941 15.9854 8.2586 15.9877 7.9964C15.9899 7.7342 15.8891 7.4816 15.707 7.293L8.70698 0.293Z" fill="white"/>
</svg>
