<svg width="17" height="16" viewBox="0 0 17 16" fill="none" xmlns="http://www.w3.org/2000/svg">
<path fill-rule="evenodd" clip-rule="evenodd" d="M6.5 2C5.43913 2 4.42172 2.42143 3.67157 3.17158C2.92143 3.92172 2.5 4.93914 2.5 6C2.5 7.06087 2.92143 8.07829 3.67157 8.82843C4.42172 9.57858 5.43913 10 6.5 10C7.56087 10 8.57828 9.57858 9.32843 8.82843C10.0786 8.07829 10.5 7.06087 10.5 6C10.5 4.93914 10.0786 3.92172 9.32843 3.17158C8.57828 2.42143 7.56087 2 6.5 2ZM0.5 6C0.49988 5.05571 0.722642 4.12472 1.15017 3.28274C1.5777 2.44077 2.19792 1.7116 2.9604 1.15453C3.72287 0.597457 4.60606 0.228216 5.53815 0.0768364C6.47023 -0.0745427 7.42488 -0.00378543 8.32446 0.283354C9.22404 0.570493 10.0432 1.06591 10.7152 1.7293C11.3872 2.39269 11.8931 3.20534 12.1919 4.10114C12.4906 4.99693 12.5737 5.9506 12.4343 6.88456C12.295 7.81852 11.9372 8.7064 11.39 9.476L16.207 14.293C16.3892 14.4816 16.49 14.7342 16.4877 14.9964C16.4854 15.2586 16.3802 15.5094 16.1948 15.6948C16.0094 15.8802 15.7586 15.9854 15.4964 15.9877C15.2342 15.99 14.9816 15.8892 14.793 15.707L9.977 10.891C9.07936 11.5293 8.02335 11.9082 6.92468 11.9861C5.826 12.0641 4.72707 11.8381 3.7483 11.333C2.76953 10.8278 1.94869 10.063 1.37572 9.12235C0.80276 8.18168 0.499786 7.10144 0.5 6Z" fill="white"/>
</svg>
