<svg width="19" height="16" viewBox="0 0 19 16" fill="none" xmlns="http://www.w3.org/2000/svg">
<path d="M13.6667 14.6667H17.8334V13C17.8333 12.4805 17.6714 11.9738 17.3701 11.5505C17.0689 11.1272 16.6432 10.8083 16.1523 10.6381C15.6614 10.4679 15.1297 10.4549 14.6311 10.6009C14.1324 10.7468 13.6917 11.0445 13.37 11.4525M13.6667 14.6667H5.33335M13.6667 14.6667V13C13.6667 12.4533 13.5617 11.9308 13.37 11.4525M13.37 11.4525C13.0606 10.6791 12.5265 10.0162 11.8367 9.54928C11.1469 9.08233 10.333 8.83276 9.50002 8.83276C8.66703 8.83276 7.85315 9.08233 7.16336 9.54928C6.47356 10.0162 5.93948 10.6791 5.63002 11.4525M5.33335 14.6667H1.16669V13C1.16673 12.4805 1.32863 11.9738 1.6299 11.5505C1.93118 11.1272 2.35684 10.8083 2.84773 10.6381C3.33862 10.4679 3.87033 10.4549 4.36897 10.6009C4.8676 10.7468 5.30838 11.0445 5.63002 11.4525M5.33335 14.6667V13C5.33335 12.4533 5.43835 11.9308 5.63002 11.4525M12 3.83334C12 4.49638 11.7366 5.13227 11.2678 5.60111C10.7989 6.06995 10.1631 6.33334 9.50002 6.33334C8.83698 6.33334 8.20109 6.06995 7.73225 5.60111C7.26341 5.13227 7.00002 4.49638 7.00002 3.83334C7.00002 3.1703 7.26341 2.53442 7.73225 2.06558C8.20109 1.59674 8.83698 1.33334 9.50002 1.33334C10.1631 1.33334 10.7989 1.59674 11.2678 2.06558C11.7366 2.53442 12 3.1703 12 3.83334ZM17 6.33334C17 6.77537 16.8244 7.19929 16.5119 7.51185C16.1993 7.82441 15.7754 8.00001 15.3334 8.00001C14.8913 8.00001 14.4674 7.82441 14.1548 7.51185C13.8423 7.19929 13.6667 6.77537 13.6667 6.33334C13.6667 5.89132 13.8423 5.46739 14.1548 5.15483C14.4674 4.84227 14.8913 4.66668 15.3334 4.66668C15.7754 4.66668 16.1993 4.84227 16.5119 5.15483C16.8244 5.46739 17 5.89132 17 6.33334ZM5.33335 6.33334C5.33335 6.77537 5.15776 7.19929 4.8452 7.51185C4.53264 7.82441 4.10871 8.00001 3.66669 8.00001C3.22466 8.00001 2.80074 7.82441 2.48818 7.51185C2.17561 7.19929 2.00002 6.77537 2.00002 6.33334C2.00002 5.89132 2.17561 5.46739 2.48818 5.15483C2.80074 4.84227 3.22466 4.66668 3.66669 4.66668C4.10871 4.66668 4.53264 4.84227 4.8452 5.15483C5.15776 5.46739 5.33335 5.89132 5.33335 6.33334Z" stroke="#89BDDF" stroke-width="2" stroke-linecap="round" stroke-linejoin="round"/>
</svg>
