<svg width="14" height="18" viewBox="0 0 14 18" fill="none" xmlns="http://www.w3.org/2000/svg">
<path d="M10.3334 4.83333C10.3334 5.71739 9.98216 6.56523 9.35704 7.19036C8.73192 7.81548 7.88408 8.16667 7.00002 8.16667C6.11597 8.16667 5.26812 7.81548 4.643 7.19036C4.01788 6.56523 3.66669 5.71739 3.66669 4.83333C3.66669 3.94928 4.01788 3.10143 4.643 2.47631C5.26812 1.85119 6.11597 1.5 7.00002 1.5C7.88408 1.5 8.73192 1.85119 9.35704 2.47631C9.98216 3.10143 10.3334 3.94928 10.3334 4.83333ZM7.00002 10.6667C5.45292 10.6667 3.96919 11.2812 2.87523 12.3752C1.78127 13.4692 1.16669 14.9529 1.16669 16.5H12.8334C12.8334 14.9529 12.2188 13.4692 11.1248 12.3752C10.0308 11.2812 8.54712 10.6667 7.00002 10.6667Z" stroke="white" stroke-width="2" stroke-linecap="round" stroke-linejoin="round"/>
</svg>
