<svg width="24" height="24" viewBox="0 0 24 24" fill="none" xmlns="http://www.w3.org/2000/svg">
<g clip-path="url(#clip0_487_352)">
<path d="M1.3335 17.3334L7.44816 11.2187C7.94824 10.7188 8.62639 10.4379 9.3335 10.4379C10.0406 10.4379 10.7188 10.7188 11.2188 11.2187L17.3335 17.3334M14.6668 14.6667L16.7815 12.552C17.2816 12.0521 17.9597 11.7713 18.6668 11.7713C19.3739 11.7713 20.0521 12.0521 20.5522 12.552L22.6668 14.6667M14.6668 6.66671H14.6802M4.00016 22.6667H20.0002C20.7074 22.6667 21.3857 22.3858 21.8858 21.8857C22.3859 21.3856 22.6668 20.7073 22.6668 20V4.00004C22.6668 3.2928 22.3859 2.61452 21.8858 2.11442C21.3857 1.61433 20.7074 1.33337 20.0002 1.33337H4.00016C3.29292 1.33337 2.61464 1.61433 2.11454 2.11442C1.61445 2.61452 1.3335 3.2928 1.3335 4.00004V20C1.3335 20.7073 1.61445 21.3856 2.11454 21.8857C2.61464 22.3858 3.29292 22.6667 4.00016 22.6667Z" stroke="white" stroke-width="2" stroke-linecap="round" stroke-linejoin="round"/>
</g>
<defs>
<clipPath id="clip0_487_352">
<rect width="24" height="24" fill="white"/>
</clipPath>
</defs>
</svg>
